# xmcd
#
# Track frame offsets:
#	150
#	16257
#	28047
#	42504
#	57912
#	72840
#	88211
#	102051
#	120317
#	133551
#	144796
#	161058
#	178408
#	193073
#	205073
#	221115
#	236486
#	254443
#
# Disc length: 3647 seconds
#
# Revision: 1
# Processed by: cddbd v1.5.2PL0 Copyright (c) Steve Scherf et al.
# Submitted via: audiograbber 1.83.01
#
DISCID=040e3d12
DTITLE=COUNTRY TREFFERS - LAAT WAAI
DYEAR=1900
DGENRE=Country
TTITLE0=JEANS ON
TTITLE1=LITTLE BITTY
TTITLE2=EVERY LITTLE THING
TTITLE3=IT'S A HEARTACHE
TTITLE4=MY MARIA
TTITLE5=AMANDA
TTITLE6=I LOVE A RAINY NIGHT
TTITLE7=WHO'S BED HAS YOUR BOOTS
TTITLE8=DARLIN
TTITLE9=CHATTAHOOCHEE
TTITLE10=BLAME IT ON YOUR HEART
TTITLE11=LOVIN' ON LOVE
TTITLE12=SUMMERTIME BLUES
TTITLE13=JOLENE
TTITLE14=TULSA TIME
TTITLE15=WHY NOT ME
TTITLE16=AMAZED
TTITLE17=I'M STRONG ENOUGH TO SAY NO
EXTD=
EXTT0=
EXTT1=
EXTT2=
EXTT3=
EXTT4=
EXTT5=
EXTT6=
EXTT7=
EXTT8=
EXTT9=
EXTT10=
EXTT11=
EXTT12=
EXTT13=
EXTT14=
EXTT15=
EXTT16=
EXTT17=
PLAYORDER=
